#format: frame checksums
#version: 2
#hash: MD5
#extradata 0,                              16, 9881f4423f0a3b5da25a0574d3451eef
#tb 0: 1/25
#media_type 0: video
#codec_id 0: utvideo
#dimensions 0: 352x288
#sar 0: 0/1
#stream#, dts,        pts, duration,     size, hash
0,          0,          0,        1,   304028, e1687f63bd131ace3866b61881e8e9a1
0,          1,          1,        1,   304024, 93067fdad1470b1c2f2fd4ae603a3afe
0,          2,          2,        1,   303932, 2fef08ce570f581373bd48b3a4773acb
0,          3,          3,        1,   303932, 8623d4635239deac16d56085edb8aec1
0,          4,          4,        1,   303984, ef0a1be76f7c854e5f2724d7a6707f54
0,          5,          5,        1,   303932, 0e57009f6e93c2e5ce80d6109d9a66f3
0,          6,          6,        1,   303936, db988d8d6e9ee0383cfc69a201de62e2
0,          7,          7,        1,   304024, 963e86c081fafed2f757c4aafc9186df
0,          8,          8,        1,   304032, e867c068706bff34a561a4b2c4622fd3
0,          9,          9,        1,   303960, 0dd6d1cbe6a9fb07e3f3cb4a12c2821a
0,         10,         10,        1,   303944, 424612ce8850b378171ee8bfca5d91ce
0,         11,         11,        1,   303956, f26d5065818f98bbf97aae56fe07b057
0,         12,         12,        1,   303980, dfd1a61b5a717805a06f19ee899c3917
0,         13,         13,        1,   303936, 2223f98ac58078c49489811171c713e1
0,         14,         14,        1,   303808, 6a63bd7cd4cafe5e64dc8dc46f9f3760
0,         15,         15,        1,   303864, a355699c989795379d1ef2089c98e619
0,         16,         16,        1,   304008, 07a0c41088846ed77fedc565cfeaeba7
0,         17,         17,        1,   304000, dbb37a1af0bb534112aac9269b7d7c2c
0,         18,         18,        1,   304048, 3129997c9ba84a0c91ff9d1c48d12d7e
0,         19,         19,        1,   304068, 620b4c964daca105cd1b6bf8d55e86ae
0,         20,         20,        1,   304068, bafaf53530f76d525eafb75a3866b5e7
0,         21,         21,        1,   304092, 678138b93f07ef8f30ad373499a9caa3
0,         22,         22,        1,   304060, 4bf8174ff9ee62c13bde29ad5bba3fc9
0,         23,         23,        1,   303976, e6e926057f49e69e2ea8e679871e449a
0,         24,         24,        1,   304040, f81ba4d36df7e8967a16e7de5c7a023b
0,         25,         25,        1,   304084, a5a63a22e6bc3a54bfbd60852ca9da60
0,         26,         26,        1,   304056, df9bd50b9dd7437afb3671c99e2e1746
0,         27,         27,        1,   304076, 785a2a7de44e83f1111e66165b3d0765
0,         28,         28,        1,   304132, ab01bacd7aee91ab80b30a48f54ec4d7
0,         29,         29,        1,   304160, 4893296140e7ee6f2d194bc279f928f3
0,         30,         30,        1,   304136, 6046c7516a5e8db2f4dd3b1286ad46c0
0,         31,         31,        1,   304088, e6dbc1ec86cb678bab6a1ca0e93888d0
0,         32,         32,        1,   303980, 66db98674c107af297a3de01c047ebce
0,         33,         33,        1,   303964, e2ce0a2ee5ba8de50960873a8405c001
0,         34,         34,        1,   303900, 7ae96a39e66e0abe63e298f45477c0ec
0,         35,         35,        1,   304040, d5fc8f7809470bc40935285d4ed69a80
0,         36,         36,        1,   304088, efae0966a7e421c3107016df862b0429
0,         37,         37,        1,   304120, c6a3bf8991bf2b559f27d5ea9ae76d08
0,         38,         38,        1,   304144, 588ac89c403c5d3ca9289fbd339fdb74
0,         39,         39,        1,   304136, a3824537484dd2fc25dde9ec2974068c
0,         40,         40,        1,   304172, e1a024aa9faba0ee0cb98e41cef254c9
0,         41,         41,        1,   304116, c26c4c053d53b70c97cbf989cb51a15d
0,         42,         42,        1,   304140, 4d13ee2a3b32ba3f080fffa7ca2db6e6
0,         43,         43,        1,   304116, fb02b57f9a9fafa7bc6d2a35a68548fc
0,         44,         44,        1,   304088, 6daa494c1ed11c9ea8da6c83eb473ce7
0,         45,         45,        1,   304196, 8886953ff026efef28f4af12ce5239b6
0,         46,         46,        1,   304200, 51ff2c8552b8b044a1a183330a188d62
0,         47,         47,        1,   304208, 72fcd3dbf45284bb434ad3660f8a1ddf
0,         48,         48,        1,   304204, 1d5e2170963d70acea2ad01e1486d490
0,         49,         49,        1,   304184, 6eec23c3d4402f7a0ab4de16fde86462
